<svg width="24" height="24" viewBox="0 0 24 24" fill="none" xmlns="http://www.w3.org/2000/svg">
<path d="M5.75 9.00112C5.75 5.54919 8.54838 2.75 12 2.75C15.4516 2.75 18.25 5.54919 18.25 9.00112V9.00851V9.0159V9.02328V9.03066V9.03803V9.04541V9.05278V9.06014V9.0675V9.07486V9.08221V9.08957V9.09691V9.10426V9.1116V9.11893V9.12627V9.13359V9.14092V9.14824V9.15556V9.16287V9.17018V9.17749V9.18479V9.19209V9.19939V9.20668V9.21397V9.22125V9.22853V9.23581V9.24308V9.25035V9.25761V9.26487V9.27213V9.27938V9.28663V9.29387V9.30111V9.30835V9.31558V9.32281V9.33003V9.33725V9.34447V9.35168V9.35889V9.36609V9.37329V9.38049V9.38768V9.39487V9.40205V9.40923V9.4164V9.42357V9.43074V9.4379V9.44505V9.45221V9.45935V9.4665V9.47364V9.48077V9.4879V9.49503V9.50215V9.50927V9.51638V9.52349V9.53059V9.53769V9.54479V9.55188V9.55896V9.56604V9.57312V9.58019V9.58726V9.59432V9.60138V9.60843V9.61548V9.62252V9.62956V9.6366V9.64363V9.65065V9.65767V9.66469V9.6717V9.6787V9.6857V9.6927V9.69969V9.70668V9.71366V9.72063V9.72761V9.73457V9.74153V9.74849V9.75544V9.76239V9.76933V9.77627V9.7832V9.79012V9.79705V9.80396V9.81087V9.81778V9.82468V9.83158V9.83847V9.84535V9.85223V9.85911V9.86598V9.87284V9.8797V9.88655V9.8934V9.90025V9.90708V9.91392V9.92074V9.92757V9.93438V9.9412V9.948V9.9548V9.9616V9.96839V9.97517V9.98195V9.98872V9.99549V10.0023V10.009V10.0158V10.0225V10.0292V10.036V10.0427V10.0494V10.0561V10.0629V10.0696V10.0763V10.083V10.0896V10.0963V10.103V10.1097V10.1163V10.123V10.1297V10.1363V10.143V10.1496V10.1562V10.1628V10.1695V10.1761V10.1827V10.1893V10.1959V10.2025V10.209V10.2156V10.2222V10.2288V10.2353V10.2419V10.2484V10.255V10.2615V10.268V10.2745V10.2811V10.2876V10.2941V10.3006V10.3071V10.3136V10.32V10.3265V10.333V10.3394V10.3459V10.3523V10.3588V10.3652V10.3716V10.3781V10.3845V10.3909V10.3973V10.4037V10.4101V10.4165V10.4228V10.4292V10.4356V10.4419V10.4483V10.4546V10.461V10.4673V10.4736V10.4799V10.4862V10.4925V10.4988V10.5051V10.5114V10.5177V10.524V10.5302V10.5365V10.5427V10.549V10.5552V10.5614V10.5677V10.5739V10.5801V10.5863V10.5925V10.5987V10.6049V10.611V10.6172V10.6234V10.6295V10.6357V10.6418V10.6479V10.6541V10.6602V10.6663V10.6724V10.6785V10.6846V10.6907V10.6967V10.7028V10.7089V10.7149V10.721V10.727V10.7331V10.7391V10.7451V10.7511V10.7571V10.7631V10.7691V10.7751V10.7811V10.787V10.793V10.7989V10.8049V10.8108V10.8167V10.8227V10.8286V10.8345V10.8404V10.8463V10.8522V10.858V10.8639V10.8698V10.8756V10.8815V10.8873V10.8931V10.899V10.9048V10.9106V10.9164V10.9222V10.928V10.9337V10.9395V10.9453V10.951V10.9568V10.9625V10.9682V10.974V10.9797V10.9854V10.9911V10.9968V11.0025V11.0081V11.0138V11.0195V11.0251V11.0308V11.0364V11.042V11.0476V11.0533V11.0589V11.0645V11.07V11.0756V11.0812V11.0867V11.0923V11.0978V11.1034V11.1089V11.1144V11.1199V11.1255V11.1309V11.1364V11.1419V11.1474V11.1529V11.1583V11.1638V11.1692V11.1746V11.18V11.1855V11.1909V11.1963V11.2016V11.207V11.2124V11.2177V11.2231V11.2284V11.2338V11.2391V11.2444V11.2497V11.255V11.2603V11.2656V11.2709V11.2762V11.2814V11.2867V11.2919V11.2971V11.3024V11.3076V11.3128V11.318V11.3232V11.3283V11.3335V11.3387V11.3438V11.349V11.3541V11.3592V11.3643V11.3695V11.3746V11.3796V11.3847V11.3898V11.3949V11.3999V11.405V11.41V11.415V11.42V11.425V11.43V11.435V11.44V11.445V11.4499V11.4549V11.4598V11.4648V11.4697V11.4746V11.4795V11.4844V11.4893V11.4942V11.4991V11.5039V11.5088V11.5136V11.5184V11.5233V11.5281V11.5329V11.5377V11.5425V11.5472V11.552V11.5567V11.5615V11.5662V11.571V11.5757V11.5804V11.5851V11.5898V11.5944V11.5991V11.6038V11.6084V11.6131V11.6177V11.6223V11.6269V11.6315V11.6361V11.6407V11.6453V11.6498V11.6544V11.6589V11.6635V11.668V11.6725V11.677V11.6815V11.686V11.6904V11.6949V11.6994V11.7038V11.7082V11.7127V11.7171V11.7215V11.7259V11.7302V11.7346V11.739V11.7433V11.7477V11.752V11.7563V11.7606V11.7649V11.7692V11.7735V11.7778V11.782V11.7863V11.7905V11.7947V11.799V11.8032V11.8074V11.8116V11.8157V11.8199V11.8241V11.8282V11.8323V11.8365V11.8406V11.8447V11.8488V11.8529V11.8569V11.861V11.865V11.8691V11.8731V11.8771V11.8811V11.8851V11.8891V11.8931V11.8971V11.901V11.905V11.9089V11.9128V11.9167V11.9206V11.9245V11.9284V11.9323V11.9361V11.94V11.9438V11.9476V11.9514V11.9552V11.959V11.9628V11.9666V11.9703V11.9741V11.9778V11.9815V11.9853V11.989V11.9926V11.9963V12C18.25 13.3061 18.5874 14.8127 18.8674 15.8474C18.894 15.9456 18.8725 16.0491 18.8123 16.1311C18.7536 16.2109 18.6745 16.25 18.5905 16.25H5.40948C5.32547 16.25 5.24636 16.2109 5.1877 16.1311C5.12752 16.0491 5.10601 15.9456 5.13259 15.8474C5.41262 14.8127 5.75 13.3061 5.75 12V11.9963V11.9926V11.989V11.9853V11.9815V11.9778V11.9741V11.9703V11.9666V11.9628V11.959V11.9552V11.9514V11.9476V11.9438V11.94V11.9361V11.9323V11.9284V11.9245V11.9206V11.9167V11.9128V11.9089V11.905V11.901V11.8971V11.8931V11.8891V11.8851V11.8811V11.8771V11.8731V11.8691V11.865V11.861V11.8569V11.8529V11.8488V11.8447V11.8406V11.8365V11.8323V11.8282V11.8241V11.8199V11.8157V11.8116V11.8074V11.8032V11.799V11.7947V11.7905V11.7863V11.782V11.7778V11.7735V11.7692V11.7649V11.7606V11.7563V11.752V11.7477V11.7433V11.739V11.7346V11.7302V11.7259V11.7215V11.7171V11.7127V11.7082V11.7038V11.6994V11.6949V11.6904V11.686V11.6815V11.677V11.6725V11.668V11.6635V11.6589V11.6544V11.6498V11.6453V11.6407V11.6361V11.6315V11.6269V11.6223V11.6177V11.6131V11.6084V11.6038V11.5991V11.5944V11.5898V11.5851V11.5804V11.5757V11.571V11.5662V11.5615V11.5567V11.552V11.5472V11.5425V11.5377V11.5329V11.5281V11.5233V11.5184V11.5136V11.5088V11.5039V11.4991V11.4942V11.4893V11.4844V11.4795V11.4746V11.4697V11.4648V11.4598V11.4549V11.4499V11.445V11.44V11.435V11.43V11.425V11.42V11.415V11.41V11.405V11.3999V11.3949V11.3898V11.3847V11.3796V11.3746V11.3695V11.3643V11.3592V11.3541V11.349V11.3438V11.3387V11.3335V11.3283V11.3232V11.318V11.3128V11.3076V11.3024V11.2971V11.2919V11.2867V11.2814V11.2762V11.2709V11.2656V11.2603V11.255V11.2497V11.2444V11.2391V11.2338V11.2284V11.2231V11.2177V11.2124V11.207V11.2016V11.1963V11.1909V11.1855V11.18V11.1746V11.1692V11.1638V11.1583V11.1529V11.1474V11.1419V11.1364V11.1309V11.1255V11.1199V11.1144V11.1089V11.1034V11.0978V11.0923V11.0867V11.0812V11.0756V11.07V11.0645V11.0589V11.0533V11.0476V11.042V11.0364V11.0308V11.0251V11.0195V11.0138V11.0081V11.0025V10.9968V10.9911V10.9854V10.9797V10.974V10.9682V10.9625V10.9568V10.951V10.9453V10.9395V10.9337V10.928V10.9222V10.9164V10.9106V10.9048V10.899V10.8931V10.8873V10.8815V10.8756V10.8698V10.8639V10.858V10.8522V10.8463V10.8404V10.8345V10.8286V10.8227V10.8167V10.8108V10.8049V10.7989V10.793V10.787V10.7811V10.7751V10.7691V10.7631V10.7571V10.7511V10.7451V10.7391V10.7331V10.727V10.721V10.7149V10.7089V10.7028V10.6967V10.6907V10.6846V10.6785V10.6724V10.6663V10.6602V10.6541V10.6479V10.6418V10.6357V10.6295V10.6234V10.6172V10.611V10.6049V10.5987V10.5925V10.5863V10.5801V10.5739V10.5677V10.5614V10.5552V10.549V10.5427V10.5365V10.5302V10.524V10.5177V10.5114V10.5051V10.4988V10.4925V10.4862V10.4799V10.4736V10.4673V10.461V10.4546V10.4483V10.4419V10.4356V10.4292V10.4228V10.4165V10.4101V10.4037V10.3973V10.3909V10.3845V10.3781V10.3716V10.3652V10.3588V10.3523V10.3459V10.3394V10.333V10.3265V10.32V10.3136V10.3071V10.3006V10.2941V10.2876V10.2811V10.2745V10.268V10.2615V10.255V10.2484V10.2419V10.2353V10.2288V10.2222V10.2156V10.209V10.2025V10.1959V10.1893V10.1827V10.1761V10.1695V10.1628V10.1562V10.1496V10.143V10.1363V10.1297V10.123V10.1163V10.1097V10.103V10.0963V10.0896V10.083V10.0763V10.0696V10.0629V10.0561V10.0494V10.0427V10.036V10.0292V10.0225V10.0158V10.009V10.0023V9.99549V9.98872V9.98195V9.97517V9.96839V9.9616V9.9548V9.948V9.9412V9.93438V9.92757V9.92074V9.91392V9.90708V9.90025V9.8934V9.88655V9.8797V9.87284V9.86598V9.85911V9.85223V9.84535V9.83847V9.83158V9.82468V9.81778V9.81087V9.80396V9.79705V9.79012V9.7832V9.77627V9.76933V9.76239V9.75544V9.74849V9.74153V9.73457V9.72761V9.72063V9.71366V9.70668V9.69969V9.6927V9.6857V9.6787V9.6717V9.66469V9.65767V9.65065V9.64363V9.6366V9.62956V9.62252V9.61548V9.60843V9.60138V9.59432V9.58726V9.58019V9.57312V9.56604V9.55896V9.55188V9.54479V9.53769V9.53059V9.52349V9.51638V9.50927V9.50215V9.49503V9.4879V9.48077V9.47364V9.4665V9.45935V9.45221V9.44505V9.4379V9.43074V9.42357V9.4164V9.40923V9.40205V9.39487V9.38768V9.38049V9.37329V9.36609V9.35889V9.35168V9.34447V9.33725V9.33003V9.32281V9.31558V9.30835V9.30111V9.29387V9.28663V9.27938V9.27213V9.26487V9.25761V9.25035V9.24308V9.23581V9.22853V9.22125V9.21397V9.20668V9.19939V9.19209V9.18479V9.17749V9.17018V9.16287V9.15556V9.14824V9.14092V9.13359V9.12627V9.11893V9.1116V9.10426V9.09691V9.08957V9.08221V9.07486V9.0675V9.06014V9.05278V9.04541V9.03803V9.03066V9.02328V9.0159V9.00851V9.00112Z" stroke="#474D59" stroke-width="1.5"/>
<path d="M9 19C9 19 10 21 12 21C14 21 15 19 15 19" stroke="#474D59" stroke-width="1.5" stroke-linecap="round"/>
</svg>

