<svg width="36" height="36" viewBox="0 0 36 36" fill="none" xmlns="http://www.w3.org/2000/svg">
<path d="M9 13.0005C9 8.02989 13.0295 4 18 4C22.9705 4 27 8.02989 27 13.0005V13.0127V13.0249V13.0371V13.0493V13.0615V13.0737V13.0859V13.0981V13.1102V13.1224V13.1346V13.1467V13.1589V13.171V13.1831V13.1953V13.2074V13.2195V13.2317V13.2438V13.2559V13.268V13.2801V13.2922V13.3043V13.3163V13.3284V13.3405V13.3526V13.3646V13.3767V13.3887V13.4008V13.4128V13.4248V13.4369V13.4489V13.4609V13.4729V13.4849V13.4969V13.5089V13.5209V13.5329V13.5448V13.5568V13.5688V13.5807V13.5927V13.6046V13.6165V13.6285V13.6404V13.6523V13.6642V13.6761V13.688V13.6999V13.7118V13.7237V13.7356V13.7474V13.7593V13.7712V13.783V13.7948V13.8067V13.8185V13.8303V13.8421V13.854V13.8658V13.8775V13.8893V13.9011V13.9129V13.9247V13.9364V13.9482V13.9599V13.9717V13.9834V13.9951V14.0068V14.0185V14.0303V14.0419V14.0536V14.0653V14.077V14.0887V14.1003V14.112V14.1236V14.1353V14.1469V14.1585V14.1701V14.1817V14.1933V14.2049V14.2165V14.2281V14.2397V14.2512V14.2628V14.2743V14.2859V14.2974V14.3089V14.3205V14.332V14.3435V14.355V14.3664V14.3779V14.3894V14.4009V14.4123V14.4238V14.4352V14.4466V14.458V14.4695V14.4809V14.4923V14.5036V14.515V14.5264V14.5378V14.5491V14.5605V14.5718V14.5831V14.5944V14.6058V14.6171V14.6283V14.6396V14.6509V14.6622V14.6734V14.6847V14.6959V14.7072V14.7184V14.7296V14.7408V14.752V14.7632V14.7744V14.7856V14.7967V14.8079V14.819V14.8301V14.8413V14.8524V14.8635V14.8746V14.8857V14.8968V14.9078V14.9189V14.9299V14.941V14.952V14.963V14.9741V14.9851V14.9961V15.007V15.018V15.029V15.0399V15.0509V15.0618V15.0727V15.0837V15.0946V15.1055V15.1164V15.1272V15.1381V15.149V15.1598V15.1706V15.1815V15.1923V15.2031V15.2139V15.2247V15.2355V15.2462V15.257V15.2677V15.2785V15.2892V15.2999V15.3106V15.3213V15.332V15.3427V15.3533V15.364V15.3746V15.3853V15.3959V15.4065V15.4171V15.4277V15.4383V15.4488V15.4594V15.4699V15.4805V15.491V15.5015V15.512V15.5225V15.533V15.5435V15.5539V15.5644V15.5748V15.5852V15.5957V15.6061V15.6165V15.6268V15.6372V15.6476V15.6579V15.6683V15.6786V15.6889V15.6992V15.7095V15.7198V15.73V15.7403V15.7505V15.7608V15.771V15.7812V15.7914V15.8016V15.8118V15.8219V15.8321V15.8422V15.8523V15.8625V15.8726V15.8827V15.8927V15.9028V15.9129V15.9229V15.9329V15.943V15.953V15.963V15.9729V15.9829V15.9929V16.0028V16.0128V16.0227V16.0326V16.0425V16.0524V16.0622V16.0721V16.0819V16.0918V16.1016V16.1114V16.1212V16.131V16.1408V16.1505V16.1603V16.17V16.1797V16.1894V16.1991V16.2088V16.2185V16.2281V16.2378V16.2474V16.257V16.2666V16.2762V16.2858V16.2954V16.3049V16.3145V16.324V16.3335V16.343V16.3525V16.362V16.3714V16.3809V16.3903V16.3997V16.4091V16.4185V16.4279V16.4373V16.4466V16.456V16.4653V16.4746V16.4839V16.4932V16.5025V16.5117V16.521V16.5302V16.5394V16.5486V16.5578V16.567V16.5761V16.5853V16.5944V16.6035V16.6126V16.6217V16.6308V16.6398V16.6489V16.6579V16.6669V16.6759V16.6849V16.6939V16.7029V16.7118V16.7208V16.7297V16.7386V16.7475V16.7563V16.7652V16.774V16.7829V16.7917V16.8005V16.8093V16.818V16.8268V16.8355V16.8443V16.853V16.8617V16.8704V16.879V16.8877V16.8963V16.9049V16.9136V16.9221V16.9307V16.9393V16.9478V16.9564V16.9649V16.9734V16.9819V16.9903V16.9988V17.0072V17.0157V17.0241V17.0325V17.0408V17.0492V17.0576V17.0659V17.0742V17.0825V17.0908V17.0991V17.1073V17.1156V17.1238V17.132V17.1402V17.1484V17.1565V17.1647V17.1728V17.1809V17.189V17.1971V17.2051V17.2132V17.2212V17.2292V17.2372V17.2452V17.2532V17.2611V17.2691V17.277V17.2849V17.2928V17.3006V17.3085V17.3163V17.3241V17.332V17.3397V17.3475V17.3553V17.363V17.3707V17.3784V17.3861V17.3938V17.4014V17.4091V17.4167V17.4243V17.4319V17.4395V17.447V17.4545V17.4621V17.4696V17.477V17.4845V17.492V17.4994V17.5068V17.5142V17.5216V17.529V17.5363V17.5436V17.5509V17.5582V17.5655V17.5728V17.58V17.5873V17.5945V17.6017V17.6088V17.616V17.6231V17.6302V17.6373V17.6444V17.6515V17.6585V17.6656V17.6726V17.6796V17.6866V17.6935V17.7005V17.7074V17.7143V17.7212V17.7281V17.7349V17.7417V17.7486V17.7554V17.7621V17.7689V17.7757V17.7824V17.7891V17.7958V17.8024V17.8091V17.8157V17.8223V17.8289V17.8355V17.8421V17.8486V17.8552V17.8617V17.8681V17.8746V17.8811V17.8875V17.8939V17.9003V17.9067V17.913V17.9194V17.9257V17.932V17.9383V17.9445V17.9508V17.957V17.9632V17.9694V17.9755V17.9817V17.9878V17.9939V18C27 20.353 27.9244 23.2793 28.5168 24.9287C28.5204 24.9386 28.5207 24.9459 28.5196 24.9534C28.5183 24.9627 28.5142 24.9741 28.507 24.9847C28.5003 24.9945 28.4942 24.9988 28.4924 24.9999C28.4918 24.9999 28.4909 25 28.4895 25H7.51051C7.50913 25 7.50818 24.9999 7.50758 24.9999C7.50579 24.9988 7.49971 24.9945 7.49299 24.9847C7.48578 24.9741 7.48172 24.9627 7.48038 24.9534C7.47931 24.9459 7.47964 24.9386 7.48321 24.9287C8.0756 23.2793 9 20.353 9 18V17.9939V17.9878V17.9817V17.9755V17.9694V17.9632V17.957V17.9508V17.9445V17.9383V17.932V17.9257V17.9194V17.913V17.9067V17.9003V17.8939V17.8875V17.8811V17.8746V17.8681V17.8617V17.8552V17.8486V17.8421V17.8355V17.8289V17.8223V17.8157V17.8091V17.8024V17.7958V17.7891V17.7824V17.7757V17.7689V17.7621V17.7554V17.7486V17.7417V17.7349V17.7281V17.7212V17.7143V17.7074V17.7005V17.6935V17.6866V17.6796V17.6726V17.6656V17.6585V17.6515V17.6444V17.6373V17.6302V17.6231V17.616V17.6088V17.6017V17.5945V17.5873V17.58V17.5728V17.5655V17.5582V17.5509V17.5436V17.5363V17.529V17.5216V17.5142V17.5068V17.4994V17.492V17.4845V17.477V17.4696V17.4621V17.4545V17.447V17.4394V17.4319V17.4243V17.4167V17.4091V17.4014V17.3938V17.3861V17.3784V17.3707V17.363V17.3553V17.3475V17.3397V17.332V17.3241V17.3163V17.3085V17.3006V17.2928V17.2849V17.277V17.2691V17.2611V17.2532V17.2452V17.2372V17.2292V17.2212V17.2132V17.2051V17.1971V17.189V17.1809V17.1728V17.1647V17.1565V17.1484V17.1402V17.132V17.1238V17.1156V17.1073V17.0991V17.0908V17.0825V17.0742V17.0659V17.0576V17.0492V17.0408V17.0325V17.0241V17.0157V17.0072V16.9988V16.9903V16.9819V16.9734V16.9649V16.9564V16.9478V16.9393V16.9307V16.9221V16.9136V16.9049V16.8963V16.8877V16.879V16.8704V16.8617V16.853V16.8443V16.8355V16.8268V16.818V16.8093V16.8005V16.7917V16.7829V16.774V16.7652V16.7563V16.7475V16.7386V16.7297V16.7208V16.7118V16.7029V16.6939V16.6849V16.6759V16.6669V16.6579V16.6489V16.6398V16.6308V16.6217V16.6126V16.6035V16.5944V16.5853V16.5761V16.567V16.5578V16.5486V16.5394V16.5302V16.521V16.5117V16.5025V16.4932V16.4839V16.4746V16.4653V16.456V16.4466V16.4373V16.4279V16.4185V16.4091V16.3997V16.3903V16.3809V16.3714V16.362V16.3525V16.343V16.3335V16.324V16.3145V16.3049V16.2954V16.2858V16.2762V16.2666V16.257V16.2474V16.2378V16.2281V16.2185V16.2088V16.1991V16.1894V16.1797V16.17V16.1603V16.1505V16.1408V16.131V16.1212V16.1114V16.1016V16.0918V16.0819V16.0721V16.0622V16.0524V16.0425V16.0326V16.0227V16.0128V16.0028V15.9929V15.9829V15.9729V15.963V15.953V15.943V15.9329V15.9229V15.9129V15.9028V15.8927V15.8827V15.8726V15.8625V15.8523V15.8422V15.8321V15.8219V15.8118V15.8016V15.7914V15.7812V15.771V15.7608V15.7505V15.7403V15.73V15.7198V15.7095V15.6992V15.6889V15.6786V15.6682V15.6579V15.6476V15.6372V15.6268V15.6165V15.6061V15.5957V15.5852V15.5748V15.5644V15.5539V15.5435V15.533V15.5225V15.512V15.5015V15.491V15.4805V15.4699V15.4594V15.4488V15.4383V15.4277V15.4171V15.4065V15.3959V15.3853V15.3746V15.364V15.3533V15.3427V15.332V15.3213V15.3106V15.2999V15.2892V15.2785V15.2677V15.257V15.2462V15.2355V15.2247V15.2139V15.2031V15.1923V15.1815V15.1706V15.1598V15.149V15.1381V15.1272V15.1164V15.1055V15.0946V15.0837V15.0727V15.0618V15.0509V15.0399V15.029V15.018V15.007V14.9961V14.9851V14.9741V14.963V14.952V14.941V14.9299V14.9189V14.9078V14.8968V14.8857V14.8746V14.8635V14.8524V14.8413V14.8301V14.819V14.8079V14.7967V14.7856V14.7744V14.7632V14.752V14.7408V14.7296V14.7184V14.7072V14.6959V14.6847V14.6734V14.6622V14.6509V14.6396V14.6283V14.6171V14.6057V14.5944V14.5831V14.5718V14.5604V14.5491V14.5378V14.5264V14.515V14.5036V14.4922V14.4809V14.4694V14.458V14.4466V14.4352V14.4238V14.4123V14.4009V14.3894V14.3779V14.3664V14.355V14.3435V14.332V14.3205V14.3089V14.2974V14.2859V14.2743V14.2628V14.2512V14.2397V14.2281V14.2165V14.2049V14.1933V14.1817V14.1701V14.1585V14.1469V14.1353V14.1236V14.112V14.1003V14.0887V14.077V14.0653V14.0536V14.0419V14.0302V14.0185V14.0068V13.9951V13.9834V13.9717V13.9599V13.9482V13.9364V13.9247V13.9129V13.9011V13.8893V13.8775V13.8657V13.8539V13.8421V13.8303V13.8185V13.8067V13.7948V13.783V13.7712V13.7593V13.7474V13.7356V13.7237V13.7118V13.6999V13.688V13.6761V13.6642V13.6523V13.6404V13.6285V13.6165V13.6046V13.5927V13.5807V13.5688V13.5568V13.5448V13.5329V13.5209V13.5089V13.4969V13.4849V13.4729V13.4609V13.4489V13.4369V13.4248V13.4128V13.4008V13.3887V13.3767V13.3646V13.3526V13.3405V13.3284V13.3163V13.3043V13.2922V13.2801V13.268V13.2559V13.2438V13.2317V13.2195V13.2074V13.1953V13.1831V13.171V13.1589V13.1467V13.1346V13.1224V13.1102V13.0981V13.0859V13.0737V13.0615V13.0493V13.0371V13.0249V13.0127V13.0005Z" stroke="#474D59" stroke-width="2"/>
<path d="M13 29C13 29 14.6667 32 18 32C21.3333 32 23 29 23 29" stroke="#474D59" stroke-width="2" stroke-linecap="round"/>
</svg>

