<svg width="190" height="64" viewBox="0 0 190 64" fill="none" xmlns="http://www.w3.org/2000/svg">
<rect width="190" height="64" fill="white"/>
<path d="M83.1341 24.1238V38.3546H81.1125V26.1127H79.7826V41.605H77.7609V26.1127H76.4348V38.3565H74.4132V25.1183C74.4132 24.5694 74.8661 24.1238 75.424 24.1238H77.7609V21.8397H79.7826V24.1238H83.1341ZM89.6806 25.8439V24.7724H94.1385V22.7853H89.6806V21.8397H87.659V25.8439H84.8749C84.3169 25.8439 83.8641 26.2895 83.8641 26.8384V35.875H85.8857V27.8329H92.9806V35.875H95.0022V25.8439H89.6806ZM90.08 32.8841C90.4812 30.8275 90.4487 29.3405 90.443 29.1958H88.4233C88.4252 29.2672 88.5895 36.5744 83.566 40.5748L84.8386 42.1219C87.2367 40.2101 88.6105 37.7173 89.3978 35.4295L93.8978 41.9076L95.5659 40.7872L90.08 32.8841ZM108.504 22.7853V21.6931H106.482V22.7853H97.5245V24.7743H117.466V22.7853H108.504ZM116.654 30.038V25.7499H98.9767C98.4187 25.7499 97.9659 26.1955 97.9659 26.7444V31.0324H115.643C116.201 31.0324 116.654 30.5869 116.654 30.038ZM99.9856 27.7389H114.632V29.0435H99.9856V27.7389ZM113.056 35.7585L115.045 34.044C115.36 33.7733 115.471 33.3353 115.326 32.948C115.177 32.5608 114.8 32.3014 114.378 32.3014H98.7149V34.2884H111.693L109.987 35.7585H97.5245V37.7474H107.787V38.7682C107.787 39.2175 107.413 39.586 106.956 39.586H103.477V41.5749H106.956C108.527 41.5749 109.809 40.3154 109.809 38.7682V37.7474H117.466V35.7585H113.056Z" fill="black"/>
<path d="M45.9067 45.7053H25.9793C22.6778 45.7053 20 43.0771 20 39.8333V24.1666C20 20.9229 22.6778 18.2947 25.9793 18.2947H45.9067C49.2083 18.2947 51.886 20.9256 51.886 24.1694V39.8333C51.886 43.0771 49.2111 45.7053 45.9067 45.7053Z" fill="#FF931E"/>
<path d="M53.1702 28.9591L60.2425 22.0106C63.0018 19.2996 67.7167 21.221 67.7167 25.0528V38.9499C67.7167 42.7817 62.999 44.7031 60.2425 41.9922L53.1702 35.0436C51.459 33.3624 51.459 30.6376 53.1702 28.9591Z" fill="#FF931E"/>
<path d="M20 40.6063L46.7356 24.4261V40.6063H20Z" fill="white"/>
<path d="M46.7356 24.4261L32.5487 40.6036L38.4803 45.6418C38.5084 45.697 46.7356 24.4261 46.7356 24.4261Z" fill="#FFD7AA"/>
<path d="M27.8675 28.8708C29.7297 28.8708 31.2394 27.3876 31.2394 25.558C31.2394 23.7284 29.7297 22.2452 27.8675 22.2452C26.0054 22.2452 24.4957 23.7284 24.4957 25.558C24.4957 27.3876 26.0054 28.8708 27.8675 28.8708Z" fill="white"/>
</svg>

