<svg width="24" height="24" viewBox="0 0 24 24" fill="none" xmlns="http://www.w3.org/2000/svg">
<path d="M4.75 9.10849C4.75 8.6775 4.97202 8.27692 5.3375 8.04849L11.3375 4.29849C11.7428 4.04516 12.2572 4.04516 12.6625 4.29849L18.6625 8.04849C19.028 8.27692 19.25 8.6775 19.25 9.10849V18C19.25 18.6904 18.6904 19.25 18 19.25H15C14.8619 19.25 14.75 19.1381 14.75 19V15C14.75 14.0335 13.9665 13.25 13 13.25H11C10.0335 13.25 9.25 14.0335 9.25 15V19C9.25 19.1381 9.13807 19.25 9 19.25H6C5.30964 19.25 4.75 18.6904 4.75 18V9.10849Z" stroke="#464D5A" stroke-width="1.5"/>
</svg>
