<svg width="110" height="78" viewBox="0 0 110 78" fill="none" xmlns="http://www.w3.org/2000/svg">
<path d="M47.4391 78.3296L49.2442 57.5714H60.7559L62.561 78.3296C62.619 78.9973 62.0927 79.5714 61.4224 79.5714H48.5777C47.9074 79.5714 47.3811 78.9973 47.4391 78.3296Z" fill="#65C6DF" stroke="#3DB4D4"/>
<rect x="44" y="75.6429" width="22" height="5.57143" rx="2.78571" fill="#9FE1EF" stroke="#3DB4D4"/>
<circle cx="55" cy="39" r="23.5" fill="#9FE1EF" stroke="#3DB4D4"/>
<mask id="mask0_523_12674" style="mask-type:alpha" maskUnits="userSpaceOnUse" x="32" y="16" width="46" height="46">
<circle cx="55" cy="39" r="22.5" fill="#9FE1EF" stroke="#3DB4D4"/>
</mask>
<g mask="url(#mask0_523_12674)">
<path d="M46 16H63L61 20H55H49L46 16Z" fill="#3DB4D4"/>
</g>
<circle opacity="0.5" cx="55" cy="39" r="17.75" stroke="#3DB4D4" stroke-width="0.5"/>
<circle cx="55" cy="39" r="12.25" fill="#3DB4D4" fill-opacity="0.6" stroke="#3DB4D4" stroke-width="1.5"/>
<path opacity="0.5" d="M37 39H32" stroke="#3DB4D4" stroke-width="0.5"/>
<path opacity="0.5" d="M55 57V62" stroke="#3DB4D4" stroke-width="0.5"/>
<path opacity="0.5" d="M73 39H78" stroke="#3DB4D4" stroke-width="0.5"/>
<circle cx="59.5" cy="45.5" r="1.5" fill="#F9FAFB"/>
<circle cx="50" cy="34" r="3" fill="#F9FAFB"/>
<circle cx="55" cy="18" r="1" fill="#9FE1EF"/>
</svg>
