<svg width="25" height="24" viewBox="0 0 25 24" fill="none" xmlns="http://www.w3.org/2000/svg">
<path d="M18.4959 16.0438L17.9959 16.0435C17.9959 16.0519 17.9961 16.0602 17.9965 16.0686C18.0832 17.8124 16.4795 19.4158 14.232 19.4974C14.2341 19.4973 14.2278 19.4975 14.2047 19.4977L14.1179 19.4981C14.0443 19.4984 13.9411 19.4985 13.8124 19.4986C13.5551 19.4989 13.1971 19.4988 12.7723 19.4985C11.9228 19.498 10.8069 19.4967 9.69652 19.4951C8.58618 19.4936 7.48146 19.4918 6.65432 19.4904L5.65581 19.4887L5.37644 19.4883L5.30288 19.4881L5.28403 19.4881L5.27926 19.4881L5.27806 19.4881L5.27776 19.4881C5.27769 19.4881 5.27766 19.4881 5.27676 19.9881L5.27766 19.4881C5.26613 19.4881 5.2546 19.4884 5.2431 19.4892C3.00462 19.6403 1.17396 18.213 1.01281 16.4642C1.01372 16.474 1.01371 16.4731 1.01334 16.4517C1.01311 16.438 1.01274 16.416 1.01238 16.3831C1.01163 16.3145 1.01094 16.2176 1.0103 16.0958C1.00903 15.8524 1.00799 15.5127 1.00716 15.1088C1.0055 14.3012 1.00463 13.2386 1.00422 12.1807C1.00381 11.1228 1.00385 10.0697 1.00399 9.28112L1.00424 8.32905L1.00434 8.06265L1.00437 7.9925L1.00438 7.97453L1.00438 7.96998L1.00438 7.96884L1.00439 7.96855L0.504385 7.96822L1.00439 7.96845C1.00439 7.9598 1.00417 7.95115 1.00372 7.9425C0.913782 6.1962 2.51528 4.58918 4.76373 4.50442L4.76373 4.50443L4.76641 4.50431C4.7662 4.50432 4.76739 4.50431 4.77016 4.50428C4.78064 4.50417 4.81369 4.50383 4.87791 4.50354C4.95152 4.50322 5.05464 4.50298 5.1833 4.5028C5.44049 4.50245 5.79818 4.50237 6.22259 4.5025C7.07133 4.50277 8.18595 4.50386 9.295 4.50519C10.404 4.50653 11.5073 4.50812 12.3334 4.50937L13.3306 4.51092L13.6096 4.51137L13.683 4.51149L13.7019 4.51152L13.7066 4.51153L13.7078 4.51153L13.7081 4.51153L13.7091 4.01153L13.7082 4.51153C13.7195 4.51155 13.7308 4.51118 13.7421 4.51044C15.9913 4.36147 17.8284 5.79818 17.9886 7.55638C17.9883 7.55418 17.9885 7.57489 17.9889 7.62101C17.9894 7.67967 17.9902 7.77944 17.9909 7.92544C17.992 8.16827 17.993 8.50741 17.9937 8.91069C17.9952 9.71711 17.9959 10.7784 17.9963 11.8352C17.9966 12.892 17.9965 13.9441 17.9963 14.732L17.9961 15.6832L17.996 15.9494L17.9959 16.0195L17.9959 16.0375L17.9959 16.042V16.0432V16.0435L18.4959 16.0438Z" fill="white" stroke="white" stroke-linecap="round" stroke-linejoin="round"/>
<circle cx="14" cy="8.5" r="1.5" fill="#FF9E40"/>
<path opacity="0.8" d="M17.5 8.4L20.7572 7.09711C22.0709 6.57162 23.5 7.53914 23.5 8.95407V15.0459C23.5 16.4609 22.0709 17.4284 20.7572 16.9029L17.5 15.6V8.4Z" fill="white"/>
</svg>
