<svg width="24" height="24" viewBox="0 0 24 24" fill="none" xmlns="http://www.w3.org/2000/svg">
<path d="M10.6236 4.54619L10.6236 4.54617C10.7406 4.0806 11.1626 3.75 11.6512 3.75H13.3489C13.8374 3.75 14.2595 4.0806 14.3764 4.54617L14.3764 4.54619L14.4258 4.74259C14.804 6.24814 16.3527 7.1424 17.8457 6.71743L18.0499 6.65931L17.8459 5.94266L18.0499 6.65931C18.5195 6.52564 19.0181 6.7279 19.26 7.14494L19.26 7.14495L20.1089 8.60785C20.3502 9.02377 20.2767 9.5499 19.9284 9.88498L19.7899 10.0183C18.6654 11.1001 18.6654 12.8998 19.7899 13.9817L19.9284 14.115C19.9284 14.115 19.9284 14.115 19.9284 14.115C20.2767 14.4501 20.3502 14.9762 20.1089 15.3921L19.26 16.855L19.26 16.855C19.0181 17.2721 18.5195 17.4743 18.0499 17.3407L17.8458 17.2826C16.3527 16.8576 14.804 17.7518 14.4258 19.2574L14.3764 19.4538L15.1038 19.6366L14.3764 19.4538C14.2595 19.9194 13.8374 20.25 13.3489 20.25H11.6512C11.1626 20.25 10.7406 19.9194 10.6236 19.4538L10.6236 19.4538L10.5743 19.2574C10.196 17.7518 8.64734 16.8576 7.15431 17.2825L6.95006 17.3407C6.48048 17.4743 5.98193 17.2721 5.73993 16.855L4.89112 15.3921C4.64978 14.9762 4.72329 14.4501 5.07158 14.115C5.07158 14.115 5.07158 14.115 5.07159 14.115L5.2101 13.9817C6.3346 12.8998 6.3346 11.1001 5.2101 10.0183L5.07158 9.88498L4.55159 10.4255L5.07158 9.88498C4.7233 9.5499 4.64978 9.02377 4.89112 8.60783L5.73994 7.14495C5.73994 7.14495 5.73994 7.14495 5.73994 7.14495C5.98193 6.7279 6.48049 6.52564 6.95007 6.6593L7.15432 6.71744C8.64737 7.14241 10.196 6.24815 10.5743 4.74259L10.6236 4.54619Z" stroke="#474D59" stroke-width="1.5"/>
<circle cx="12.5" cy="12" r="3.25" stroke="#474D59" stroke-width="1.5"/>
</svg>
