<svg width="140" height="140" viewBox="0 0 140 140" fill="none" xmlns="http://www.w3.org/2000/svg">
<rect width="140" height="140" fill="white"/>
<path d="M73.7005 70.5692H39.6247C33.979 70.5692 29.4 66.085 29.4 60.5503V33.819C29.4 28.2843 33.979 23.8 39.6247 23.8H73.7005C79.3461 23.8 83.9251 28.289 83.9251 33.8237V60.5503C83.9251 66.085 79.3509 70.5692 73.7005 70.5692Z" fill="#FF931E"/>
<path d="M86.1211 41.9962L98.2149 30.1402C102.933 25.5146 110.996 28.793 110.996 35.331V59.043C110.996 65.5809 102.928 68.8593 98.2149 64.2338L86.1211 52.3778C83.195 49.5092 83.195 44.8601 86.1211 41.9962Z" fill="#FF931E"/>
<path d="M29.4 61.8692L75.1179 34.2617V61.8692H29.4Z" fill="white"/>
<path d="M75.1179 34.2617L50.8583 61.8644L61.0013 70.4608C61.0494 70.5551 75.1179 34.2617 75.1179 34.2617Z" fill="#FFD7AA"/>
<path d="M42.8538 41.8454C46.0382 41.8454 48.6196 39.3147 48.6196 36.193C48.6196 33.0712 46.0382 30.5405 42.8538 30.5405C39.6695 30.5405 37.088 33.0712 37.088 36.193C37.088 39.3147 39.6695 41.8454 42.8538 41.8454Z" fill="white"/>
<path d="M47.913 86.332V110.613H44.456V89.7256H42.1818V116.159H38.7248V89.7256H36.4572V110.616H33.0002V88.0288C33.0002 87.0922 33.7745 86.332 34.7287 86.332H38.7248V82.4348H42.1818V86.332H47.913ZM59.1074 89.2669V87.4386H66.7304V84.0482H59.1074V82.4348H55.6504V89.2669H50.8896C49.9355 89.2669 49.1611 90.0271 49.1611 90.9637V106.382H52.6182V92.6605H64.7503V106.382H68.2073V89.2669H59.1074ZM59.7903 101.279C60.4765 97.7702 60.4209 95.233 60.4111 94.986H56.9574C56.9606 95.1079 57.2416 107.576 48.6514 114.401L50.8276 117.041C54.9283 113.779 57.2776 109.526 58.6238 105.622L66.3187 116.676L69.1712 114.764L59.7903 101.279ZM91.2954 84.0482V82.1846H87.8384V84.0482H72.5204V87.4418H106.62V84.0482H91.2954ZM105.231 96.423V89.1065H75.0037C74.0496 89.1065 73.2752 89.8667 73.2752 90.8033V98.1198H103.503C104.457 98.1198 105.231 97.3596 105.231 96.423ZM76.7289 92.5001H101.774V94.7262H76.7289V92.5001ZM99.0786 106.184L102.48 103.258C103.019 102.796 103.209 102.049 102.96 101.388C102.705 100.728 102.062 100.285 101.34 100.285H74.5561V103.675H96.7488L93.831 106.184H72.5204V109.577H90.0701V111.319C90.0701 112.086 89.4297 112.714 88.6487 112.714H82.6986V116.108H88.6487C91.3346 116.108 93.5271 113.959 93.5271 111.319V109.577H106.62V106.184H99.0786Z" fill="black"/>
</svg>
