<svg width="1315" height="512" viewBox="0 0 1315 512" fill="none" xmlns="http://www.w3.org/2000/svg">
<path d="M673.7 141.738V350.969H643.633V170.98H623.855V398.757H593.788V170.98H574.066V350.996H544V156.359C544 148.288 550.735 141.738 559.033 141.738H593.788V108.156H623.855V141.738H673.7ZM771.06 167.028V151.273H837.359V122.059H771.06V108.156H740.993V167.028H699.588C691.29 167.028 684.555 173.579 684.555 181.649V314.512H714.622V196.271H820.137V314.512H850.204V167.028H771.06ZM776.999 270.538C782.967 240.3 782.484 218.437 782.398 216.309H752.361C752.389 217.359 754.833 324.794 680.122 383.611L699.049 406.358C734.713 378.249 755.146 341.599 766.854 307.962L833.778 403.207L858.587 386.734L776.999 270.538ZM1080.75 122.059V106H1050.68V122.059H917.46V151.301H1214.03V122.059H1080.75ZM1201.95 228.692V165.646H939.058C930.759 165.646 924.024 172.197 924.024 180.267V243.313H1186.92C1195.22 243.313 1201.95 236.762 1201.95 228.692ZM954.062 194.889H1171.89V214.07H954.062V194.889ZM1148.44 312.799L1178.02 287.591C1182.71 283.611 1184.36 277.171 1182.2 271.478C1179.99 265.784 1174.39 261.97 1168.11 261.97H935.164V291.185H1128.18L1102.8 312.799H917.46V342.041H1070.09V357.049C1070.09 363.655 1064.52 369.073 1057.73 369.073H1005.98V398.315H1057.73C1081.09 398.315 1100.16 379.797 1100.16 357.049V342.041H1214.03V312.799H1148.44Z" fill="black" fill-opacity="0.8"/>
<path d="M122.5 351C148.735 351 170 372.265 170 398.5C170 424.735 148.735 446 122.5 446C96.265 446 75 424.735 75 398.5C75 372.265 96.265 351 122.5 351Z" fill="#FF9C3C"/>
<path d="M170 161H75V303.5H170V161Z" fill="#36C8EE"/>
<path d="M170 66V161H75C75 108.53 117.53 66 170 66Z" fill="#FF9C3C"/>
<path d="M455 161H170V66H350.945C408.416 66 455 108.53 455 161Z" fill="#FF6100"/>
<path d="M360 351H217.5V446H360V351Z" fill="#36C8EE"/>
<path d="M455 351C455 403.47 412.47 446 360 446V351H455Z" fill="#34A853"/>
<path d="M455 161H360V351H455V161Z" fill="#FF9C3C"/>
</svg>

