<svg width="1024" height="1024" viewBox="0 0 1024 1024" fill="none" xmlns="http://www.w3.org/2000/svg">
<rect width="1024" height="1024" fill="#FF931E"/>
<path fill-rule="evenodd" clip-rule="evenodd" d="M547.308 752.624H203.998C147.126 752.624 101 706.498 101 649.626V374.998C101 318.126 147.126 272 203.998 272H547.308C604.179 272 650.305 318.126 650.305 374.998V509.989C650.877 491.47 658.234 473.117 672.376 458.974L794.202 337.148C841.732 289.618 922.95 323.306 922.95 390.486V634.138C922.95 701.319 841.684 735.006 794.202 687.476L672.376 565.65C658.234 551.531 650.877 533.19 650.305 514.672V649.626C650.257 706.498 604.179 752.624 547.308 752.624ZM236.91 459.893C268.988 459.893 294.992 433.889 294.992 401.812C294.992 369.734 268.988 343.73 236.91 343.73C204.833 343.73 178.829 369.734 178.829 401.812C178.829 433.889 204.833 459.893 236.91 459.893Z" fill="white"/>
<path d="M101 663.178L561.538 379.547V663.178H101Z" fill="#FF931E"/>
<path d="M561.538 379.547L317.16 663.178L419.335 751.511C419.819 752.43 561.538 379.547 561.538 379.547Z" fill="#FF791E"/>
</svg>

