<svg width="1024" height="1024" viewBox="0 0 1024 1024" fill="none" xmlns="http://www.w3.org/2000/svg">
<path d="M0 289.8C0 187.292 0 136.038 20.2656 97.0246C37.3432 64.1488 64.1488 37.3432 97.0246 20.2656C136.038 0 187.292 0 289.8 0H734.2C836.708 0 887.962 0 926.975 20.2656C959.851 37.3432 986.657 64.1488 1003.73 97.0246C1024 136.038 1024 187.292 1024 289.8V734.2C1024 836.708 1024 887.962 1003.73 926.975C986.657 959.851 959.851 986.657 926.975 1003.73C887.962 1024 836.708 1024 734.2 1024H289.8C187.292 1024 136.038 1024 97.0246 1003.73C64.1488 986.657 37.3432 959.851 20.2656 926.975C0 887.962 0 836.708 0 734.2V289.8Z" fill="white"/>
<path d="M233.333 689.333C289.301 689.333 334.667 734.699 334.667 790.667C334.667 846.634 289.301 892 233.333 892C177.365 892 132 846.634 132 790.667C132 734.699 177.365 689.333 233.333 689.333Z" fill="#FF9C3C"/>
<path d="M334.667 334.667H132V571.111H334.667V334.667Z" fill="#36C8EE"/>
<path d="M334.667 132V334.667H132C132 222.731 222.731 132 334.667 132Z" fill="#FF9C3C"/>
<path d="M892 334.667H334.667V132H688.515C800.902 132 892 222.731 892 334.667Z" fill="#FF6100"/>
<path d="M689.333 689.333H452.889V892H689.333V689.333Z" fill="#36C8EE"/>
<path d="M892 689.333C892 801.269 801.269 892 689.333 892V689.333H892Z" fill="#34A853"/>
<path d="M892 334.667H689.333V689.333H892V334.667Z" fill="#FF9C3C"/>
</svg>

