<svg width="64" height="64" viewBox="0 0 64 64" fill="none" xmlns="http://www.w3.org/2000/svg">
<rect width="64" height="64" fill="white"/>
<path d="M34.0483 45.7053H14.1209C10.8194 45.7053 8.1416 43.0771 8.1416 39.8333V24.1666C8.1416 20.9229 10.8194 18.2947 14.1209 18.2947H34.0483C37.3499 18.2947 40.0277 20.9256 40.0277 24.1694V39.8333C40.0277 43.0771 37.3527 45.7053 34.0483 45.7053Z" fill="#FF931E"/>
<path d="M15.8675 29.8708C17.7297 29.8708 19.2393 28.3876 19.2393 26.558C19.2393 24.7284 17.7297 23.2452 15.8675 23.2452C14.0053 23.2452 12.4957 24.7284 12.4957 26.558C12.4957 28.3876 14.0053 29.8708 15.8675 29.8708Z" fill="white"/>
<path d="M41.3117 28.9592L48.3841 22.0106C51.1433 19.2996 55.8583 21.2211 55.8583 25.0528V38.95C55.8583 42.7817 51.1405 44.7031 48.3841 41.9922L41.3117 35.0436C39.6005 33.3624 39.6005 30.6376 41.3117 28.9592Z" fill="#FF931E"/>
<path d="M8.1416 40.6063L34.8772 24.4261V40.6063H8.1416Z" fill="white"/>
<path d="M34.8772 24.4261L20.6903 40.6036L26.6219 45.6418C26.65 45.697 34.8772 24.4261 34.8772 24.4261Z" fill="#FFD7AA"/>
</svg>

