<svg width="1024" height="1024" viewBox="0 0 1024 1024" fill="none" xmlns="http://www.w3.org/2000/svg">
<rect width="1024" height="1024" fill="white"/>
<path d="M592.646 332.075L325.182 511.506L266.344 472.031C245.887 458.309 233.606 435.233 233.606 410.526V169.577C233.606 136.099 270.777 116.137 298.488 134.737L592.646 332.075Z" fill="#FFA854"/>
<path d="M751.673 438.748L592.646 332.063L325.182 511.506L266.344 550.981C245.887 564.691 233.606 587.767 233.606 612.474V853.423C233.606 886.901 270.777 906.863 298.488 888.263L592.646 690.925L751.673 584.24C803.306 549.618 803.306 473.394 751.673 438.748Z" fill="#FF8F22"/>
<path d="M465.4 776.298L298.488 888.263C270.777 906.863 233.606 886.901 233.606 853.423V612.474C233.606 587.767 245.887 564.691 266.344 550.981L325.182 511.506L465.4 605.577C525.983 646.207 525.983 735.655 465.4 776.298Z" fill="url(#paint0_linear_523_12803)"/>
<defs>
<linearGradient id="paint0_linear_523_12803" x1="321.571" y1="918.225" x2="350.571" y2="524.851" gradientUnits="userSpaceOnUse">
<stop stop-color="#FFA854"/>
<stop offset="1" stop-color="#FD610A"/>
</linearGradient>
</defs>
</svg>
