<svg width="512" height="512" viewBox="0 0 512 512" fill="none" xmlns="http://www.w3.org/2000/svg">
<path fill-rule="evenodd" clip-rule="evenodd" d="M176.604 249.003L306.022 162.204L306.018 162.201L176.604 249.003ZM169.423 244.186L298.837 157.385L163.688 66.7426C150.279 57.745 132.293 67.4017 132.293 83.5964V200.154C132.293 212.106 138.236 223.269 148.134 229.907L169.423 244.186Z" fill="white"/>
<path d="M244.452 377.095L163.688 431.257C150.279 440.255 132.293 430.598 132.293 414.404V297.846C132.293 285.894 138.236 274.731 148.134 268.099L176.604 249.003L244.452 294.509C273.766 314.164 273.766 357.434 244.452 377.095Z" fill="white"/>
<path fill-rule="evenodd" clip-rule="evenodd" d="M306.022 162.198L382.971 213.807C407.954 230.566 407.954 267.44 382.971 284.187L306.022 335.796L268.851 360.726C280.536 336.121 273.889 304.616 248.908 287.865L248.907 287.864L183.785 244.186L306.022 162.198ZM244.956 376.752C273.765 356.936 273.597 314.051 244.452 294.509L176.604 249.003L148.134 268.099C138.236 274.731 132.293 285.894 132.293 297.846V414.404C132.293 428.574 146.064 437.739 158.489 433.781C160.264 433.215 162.012 432.382 163.688 431.257L163.736 431.225L244.956 376.752Z" fill="white"/>
</svg>
